<?xml version="1.0" encoding="utf-8"?>
<!-- Generator: Adobe Illustrator 22.0.0, SVG Export Plug-In . SVG Version: 6.00 Build 0)  -->
<svg version="1.1" id="Layer_1" xmlns="http://www.w3.org/2000/svg" xmlns:xlink="http://www.w3.org/1999/xlink" x="0px" y="0px"
	 viewBox="0 0 1920 1080" style="enable-background:new 0 0 1920 1080;" xml:space="preserve">
<style type="text/css">
	.st0{fill:#FFFFFF;stroke:#000000;stroke-width:14;stroke-miterlimit:10;}
	.st1{fill:none;stroke:#000000;stroke-width:7;stroke-miterlimit:10;}
</style>
<ellipse class="st0" cx="817.2" cy="679.5" rx="319.3" ry="302.8"/>
<line class="st1" x1="614.7" y1="871.6" x2="863.2" y2="809.8"/>
<line class="st1" x1="570.6" y1="840.7" x2="696" y2="733.3"/>
<line class="st1" x1="615.2" y1="870.5" x2="569.9" y2="848.2"/>
<line class="st1" x1="852.9" y1="814.3" x2="1057.5" y2="715.9"/>
<line class="st1" x1="694" y1="735.3" x2="959.9" y2="576"/>
<line class="st1" x1="949.3" y1="582.2" x2="1084" y2="514.3"/>
<line class="st1" x1="1053.1" y1="718" x2="1137.5" y2="681.5"/>
<line class="st1" x1="622.2" y1="912.7" x2="620.4" y2="873"/>
<line class="st1" x1="620" y1="918.2" x2="881" y2="952.7"/>
<line class="st1" x1="572.4" y1="880.4" x2="570.6" y2="840.7"/>
<line class="st1" x1="879.1" y1="954.5" x2="1071.6" y2="870.4"/>
<line class="st1" x1="692.2" y1="734.4" x2="802.5" y2="824.9"/>
<line class="st1" x1="781" y1="629.2" x2="781" y2="727"/>
<line class="st1" x1="848.1" y1="680.9" x2="848.1" y2="778.7"/>
<line class="st1" x1="848.1" y1="778.7" x2="778.5" y2="724.8"/>
<line class="st1" x1="906.9" y1="563.3" x2="780.1" y2="629.8"/>
<line class="st1" x1="970.3" y1="614.4" x2="843.5" y2="680.9"/>
<line class="st1" x1="852" y1="682.6" x2="782.4" y2="628.7"/>
<line class="st1" x1="845.7" y1="721.8" x2="776.1" y2="667.9"/>
<line class="st1" x1="974.8" y1="712.2" x2="848.1" y2="778.7"/>
<line class="st1" x1="1096.3" y1="648.4" x2="969.6" y2="714.9"/>
<line class="st1" x1="1096.7" y1="548" x2="969.9" y2="614.5"/>
<line class="st1" x1="1133.4" y1="629.6" x2="1006.7" y2="696.1"/>
<line class="st1" x1="1023.4" y1="502.2" x2="896.6" y2="568.7"/>
<line class="st1" x1="1070" y1="481.7" x2="943.3" y2="548.3"/>
<line class="st1" x1="805.3" y1="828.6" x2="887.7" y2="950.7"/>
</svg>
