<?xml version="1.0" encoding="utf-8"?>
<!-- Generator: Adobe Illustrator 22.0.0, SVG Export Plug-In . SVG Version: 6.00 Build 0)  -->
<svg version="1.1" id="Layer_1" xmlns="http://www.w3.org/2000/svg" xmlns:xlink="http://www.w3.org/1999/xlink" x="0px" y="0px"
	 viewBox="0 0 1920 1080" style="enable-background:new 0 0 1920 1080;" xml:space="preserve">
<style type="text/css">
	.st0{fill:#FFFFFF;stroke:#000000;stroke-width:14;stroke-miterlimit:10;}
	.st1{fill:none;stroke:#000000;stroke-width:7;stroke-miterlimit:10;}
</style>
<circle class="st0" cx="789.2" cy="764.5" r="305.9"/>
<circle class="st0" cx="787.7" cy="772.1" r="266.1"/>
<rect x="565.8" y="680.4" class="st1" width="205.6" height="255.6"/>
<rect x="797.4" y="680.4" class="st1" width="205.6" height="255.6"/>
<rect x="767.8" y="680.4" class="st1" width="34.6" height="255.6"/>
<line class="st1" x1="626.9" y1="792.7" x2="697.5" y2="791.5"/>
<line class="st1" x1="633.9" y1="812.7" x2="716.3" y2="809.2"/>
<line class="st1" x1="623.4" y1="829.2" x2="697.5" y2="826.8"/>
<line class="st1" x1="631.6" y1="849.2" x2="731.6" y2="839.8"/>
<line class="st1" x1="820.5" y1="793.7" x2="891.1" y2="792.5"/>
<line class="st1" x1="827.5" y1="813.7" x2="909.9" y2="810.1"/>
<line class="st1" x1="816.9" y1="830.1" x2="891.1" y2="827.8"/>
<line class="st1" x1="825.2" y1="850.1" x2="925.2" y2="840.7"/>
<line class="st1" x1="631" y1="875.7" x2="701.6" y2="874.5"/>
<line class="st1" x1="638.1" y1="895.7" x2="720.4" y2="892.1"/>
<line class="st1" x1="627.5" y1="912.1" x2="701.6" y2="909.8"/>
<line class="st1" x1="635.7" y1="932.1" x2="735.7" y2="922.7"/>
<line class="st1" x1="833.5" y1="866.2" x2="904.1" y2="865.1"/>
<line class="st1" x1="840.6" y1="886.2" x2="922.9" y2="882.7"/>
<line class="st1" x1="830" y1="902.7" x2="904.1" y2="900.4"/>
<line class="st1" x1="838.2" y1="922.7" x2="938.2" y2="913.3"/>
<line class="st1" x1="621.8" y1="718.6" x2="692.3" y2="717.4"/>
<line class="st1" x1="628.8" y1="738.6" x2="711.2" y2="735.1"/>
<line class="st1" x1="618.2" y1="755.1" x2="692.3" y2="752.7"/>
<line class="st1" x1="626.5" y1="775.1" x2="726.5" y2="765.6"/>
<line class="st1" x1="821.5" y1="719.4" x2="892.1" y2="718.2"/>
<line class="st1" x1="828.6" y1="739.4" x2="910.9" y2="735.8"/>
<line class="st1" x1="818" y1="755.8" x2="892.1" y2="753.5"/>
<line class="st1" x1="826.2" y1="775.8" x2="926.2" y2="766.4"/>
</svg>
