<?xml version="1.0" encoding="utf-8"?>
<!-- Generator: Adobe Illustrator 22.0.0, SVG Export Plug-In . SVG Version: 6.00 Build 0)  -->
<svg version="1.1" id="Layer_1" xmlns="http://www.w3.org/2000/svg" xmlns:xlink="http://www.w3.org/1999/xlink" x="0px" y="0px"
	 viewBox="0 0 1920 1080" style="enable-background:new 0 0 1920 1080;" xml:space="preserve">
<style type="text/css">
	.st0{fill:#FFFFFF;stroke:#000000;stroke-width:14;stroke-miterlimit:10;}
	.st1{fill:#603813;}
	.st2{fill:none;stroke:#009245;stroke-width:8;stroke-miterlimit:10;}
	.st3{fill:#009245;}
</style>
<circle class="st0" cx="783.9" cy="747.4" r="313.5"/>
<rect x="753.2" y="934.8" class="st1" width="68.2" height="119.4"/>
<line class="st2" x1="591.6" y1="789.2" x2="545.7" y2="932.7"/>
<line class="st2" x1="1023.4" y1="934.8" x2="543.4" y2="934.8"/>
<line class="st2" x1="1023.4" y1="934.8" x2="969.7" y2="794"/>
<line class="st2" x1="969.7" y1="794" x2="589.2" y2="792.7"/>
<rect x="753.2" y="750.2" class="st1" width="68.2" height="43.8"/>
<line class="st2" x1="974.2" y1="750.8" x2="593.7" y2="749.6"/>
<line class="st2" x1="974" y1="750.2" x2="920.4" y2="609.4"/>
<line class="st2" x1="642.8" y1="603.9" x2="596.9" y2="747.4"/>
<line class="st2" x1="920.4" y1="609.4" x2="636.5" y2="608.1"/>
<rect x="753.2" y="565.6" class="st1" width="68.2" height="43.8"/>
<line class="st2" x1="922.1" y1="565.6" x2="638.3" y2="564.4"/>
<line class="st2" x1="672.1" y1="463.1" x2="639.3" y2="565.6"/>
<line class="st2" x1="920.4" y1="565.6" x2="879" y2="457"/>
<path class="st3" d="M977.4,731c-3.1-9.4-6.2-18.8-9.3-28.3c-1.9-5.6-7.6-9.3-13.5-7.7c-0.6,0.2-1.1,0.4-1.6,0.6
	c-0.2-1.2-0.6-2.5-1.3-3.8c-0.5-0.8-0.9-1.7-1.3-2.5c-1.2-3.9-2-7.9-2.5-12c-0.5-3.9-2.3-7.5-5.4-9.4c-1.2-3.4-2.1-6.9-2.5-10.5
	c-0.4-3.5-2-6.7-4.5-8.8c0.3-2.3,0.2-4.8-0.3-7.1c-0.3-1.5-1.2-3-2.3-4.2c0-4.1-2-8.2-6-10c0.1-0.2,0.1-0.4,0.2-0.5
	c2-7.6-3.6-13.1-10.6-13.9c-53.9-6.6-107.8-13.1-161.7-19.7c-9.9-1.2-13.7,12.4-8.2,18.7c-6.5-0.2-13-0.4-19.5-0.6
	c-26.2-2.8-52.5-4.8-78.8-5.9c-6.7-0.3-12.3,6.9-11,13.2c-6.5,13.3-9.5,27.8-8.9,42.3c-2.7,4.2-5,8.6-7,13.2
	c-8.5,10-13.7,22.5-15.4,35.9c-0.5,3.7,1.3,6.7,3.9,8.5c-2.2,4.6-4.4,9.2-6.6,13.8c-1.8,3.7-1.5,7.5,0,10.6
	c-0.4,1.6-0.6,3.2-0.4,4.6c0.7,4.6,3.6,7.5,7.9,9.1c10.8,4.2,21.7-0.3,28.3-8.4c0,0,0.1,0,0.1,0c3.9,2.8,9.4,3.1,13.8-1.1
	c1.1-1,2.2-2.1,3.3-3.1c0.8,0.2,1.7,0.4,2.6,0.4c1.8,2.4,4.6,4.1,8.4,4.2c12.3,0.5,24.6-0.7,36.5-3.6c0.2,0,0.5,0,0.7,0
	c0.8,0,1.6,0,2.4,0c1.7,1.5,4,2.5,6.6,2.6c37.7,1.8,75.4,2.7,113.2,2.8c3.2,0,5.9-1.4,7.8-3.6c1.5,0.8,3.3,1.2,5.4,1.1l10.6-0.4
	c0.7,0.2,1.5,0.3,2.3,0.4c12.6,0.8,25.1,1,37.7,0.5c1,0,1.9-0.2,2.7-0.4c0.5,0.6,1.1,1.2,1.7,1.8c10.2,10.1,26.1,10.8,36.9,1.6
	c0.1-0.1,0.2-0.2,0.3-0.3c1.6-0.1,3.3-0.4,4.9-0.8c1.3-0.3,2.3-0.8,3.3-1.4c1.3,1.6,2.8,3,4.5,4.1c5.3,3.3,12.9,3.3,17-1.8
	c0.1-0.1,0.1-0.2,0.2-0.3c0.1,0,0.1,0,0.2,0c5.5,0,8.8-3.3,10.1-7.3C976.4,741,979,735.7,977.4,731z"/>
<path class="st3" d="M911.1,549.6c0.5-1.3,0.8-2.6,0.8-4.1c0-3.8-2.2-7.5-5.4-9.4c-0.1-1.1-0.4-2.3-0.7-3.3
	c-0.9-3.1-2.8-5.7-5.1-7.8c0-1.8-0.5-3.7-1.6-5.6c-0.1-0.2-0.2-0.3-0.3-0.5c0.2-1.4,0.2-3-0.3-4.7c-2.4-9.3-4.8-18.6-7.2-27.9
	c-1.2-4.5-4.3-6.9-7.8-7.6c0-0.1-0.1-0.2-0.1-0.3c0.2-1.7-0.1-3.4-0.8-4.8c6.1-5.1,3.9-16.4-4.4-19.1c-43.3-14-89.4-16.8-134.2-8.9
	c-0.1,0-0.2,0.1-0.4,0.1c-5.2,0.3-10.3,0.6-15.5,1.1c-5.3,0-10.5,0.6-15.8,1.8c-2.2,0.5-4,1.6-5.2,3.1c-7.7,0-15.2,1.3-22.6,4
	c-2.4,0.9-4.2,2.4-5.5,4.2c-0.9,0.2-1.8,0.3-2.7,0.5c-4.2,0.8-6.9,4.3-7.7,8.3c-2.9,2.1-5.4,4.7-7.6,8.1c-4.2,6.7-5.2,14.6-5.5,22.3
	c-0.2,1.1-0.2,2.1-0.1,3c0,0.3,0,0.6,0,0.9c0,3.2-0.2,6.4-0.5,9.5c0,0,0,0,0,0c-2.3,3.9-4.5,7.8-6.8,11.7c-4.8,8.3-9.7,16.7-14.5,25
	c-4.3,7.3,1.2,16.4,9.5,16.6c34.3,0.7,68.7,0,103-2.1c1.5-0.1,2.9-0.5,4.2-1.1c0.4,0,0.8,0,1.3,0c0.7,0.1,1.5,0.2,2.2,0.1
	c6.6-0.7,13.3-1.3,19.9-2c17.7,0.8,35.3,1.5,53,2.3c3.1,0.1,5.6-0.8,7.3-2.5c1.3,0.6,2.8,0.9,4.5,0.9c0.9,0,1.7-0.1,2.4-0.2
	c0.5,0.1,1,0.1,1.5,0.1c1.9,1.4,4.2,2.2,6.7,2.5c18,2,36,3.5,54.1,4.5c5.9,0.3,11-5.3,11-11C914.4,554.2,913.1,551.5,911.1,549.6z"
	/>
<path class="st3" d="M1017.9,913.8c-5.2-6.7-10.5-13.4-15.7-20.1c0.2-1.4,0.2-2.8,0-4.3c-0.6-3.8-1.2-7.6-1.8-11.4
	c-0.1-4.2-0.8-8.3-2-12.4c-0.9-3.3-3.3-5.8-6.3-7.1c1.1-5.7,1.8-11.5,2.2-17.3c0.3-4.8-2.5-8.2-6.2-9.7c0.4-4.9-2-10-7.2-11.6
	c4-7.9,5.9-17.4-0.4-24c-4.7-4.8-12-5.8-18.3-7.1c-3.4-0.7-6.7-1.2-10.1-1.7c-3.7-1.1-7.5-1.6-11.4-1.3c-7.2,0.5-10.8,5.9-10.6,11.2
	c-3.4-0.3-6.8-0.5-10.2-0.6c-27.7-8.7-56.8-12.4-85.8-10.9c-5.4,0.3-10.1,4-10.8,9.5c-0.2,1.4,0,2.8,0.3,4.2
	c-30.9-7.5-62.3-12.5-93.9-15.1c-8-0.7-11.6,6.7-10.4,13.1c-1.6-0.1-3.3-0.1-4.9-0.2c-1.7-1.1-3.6-1.7-5.6-1.6
	c-2.1,0.1-4.2,0.3-6.3,0.5c-3.3-0.3-6.6-0.5-9.9-0.7c-13.9-2-27.7-3.8-41.7-5.5c-0.3-0.1-0.6-0.2-0.9-0.3c-6.9-2.2-14-2.4-21-1
	l-29.7-1.1c-9.4-0.3-13.4,11.6-9,17.9c-0.4,1.2-0.7,2.5-0.8,3.8c-8.3,17.1-20,32.4-27.6,49.9c-9.4,21.4-11.2,44.2-12.3,67.3
	c-0.3,5.8,5.3,11.2,11,11c13.6-0.6,27-2.8,39.8-6.7c2.6,3.8,7.5,6.1,12,4.5c5.8-1.9,11-2.5,17.1-1.9c1.8,0.2,3.6-0.3,5.1-1.1
	c4.2,0.1,8.3,0.1,12.5-0.2c1.5-0.1,2.9-0.5,4.2-1c2,2.1,4.7,3.4,7.7,3.2c25.6-1.4,51.2-2.9,76.8-4.3c1.1-0.1,2.1-0.3,3.1-0.6
	c1.6,1,3.5,1.6,5.9,1.6c2.9,0,5.3-1,7-2.5c0.5,3.8,2.9,7.3,7.8,8.6c38.3,10.3,78.8,10.7,117.3,1.3c3.4-0.8,5.6-2.9,6.8-5.5
	c1.8,2.3,4.6,3.9,8.4,3.9c0.5,0,1,0,1.4,0c0.4,0,0.8,0.1,1.2,0.1c13.3,0,26.5,0.1,39.8,0.1c3.4,0,6-1.3,7.7-3.2
	c0.7,0.1,1.4,0.2,2.1,0.2c22-0.4,44-0.8,66.1-1.2C1020.5,932.4,1023.6,921,1017.9,913.8z M579.2,913.1c-0.3,0.1-0.7,0.1-1,0.2
	c0.2-0.4,0.4-0.8,0.6-1.2c0.4-0.1,0.7-0.1,1.1-0.2C579.6,912.2,579.4,912.6,579.2,913.1z"/>
</svg>
