<?xml version="1.0" encoding="utf-8"?>
<!-- Generator: Adobe Illustrator 22.0.0, SVG Export Plug-In . SVG Version: 6.00 Build 0)  -->
<svg version="1.1" id="Layer_1" xmlns="http://www.w3.org/2000/svg" xmlns:xlink="http://www.w3.org/1999/xlink" x="0px" y="0px"
	 viewBox="0 0 1920 1080" style="enable-background:new 0 0 1920 1080;" xml:space="preserve">
<style type="text/css">
	.st0{fill:#FFFFFF;stroke:#000000;stroke-width:14;stroke-miterlimit:10;}
	.st1{fill:url(#SVGID_1_);stroke:#000000;stroke-width:14;stroke-miterlimit:10;}
	.st2{fill:#F2F2F2;stroke:#000000;stroke-width:14;stroke-miterlimit:10;}
	.st3{fill:#C1272D;}
</style>
<circle class="st0" cx="783.9" cy="747.4" r="313.5"/>
<linearGradient id="SVGID_1_" gradientUnits="userSpaceOnUse" x1="658.8823" y1="903.8823" x2="910.647" y2="903.8823">
	<stop  offset="0" style="stop-color:#FF7300"/>
	<stop  offset="0.1771" style="stop-color:#F97C01"/>
	<stop  offset="0.4705" style="stop-color:#EA9602"/>
	<stop  offset="0.5521" style="stop-color:#E59E03"/>
	<stop  offset="0.8652" style="stop-color:#E5C500"/>
	<stop  offset="0.9944" style="stop-color:#BF6F00"/>
</linearGradient>
<path class="st1" d="M898.6,1035.1l-123.5,24.7c-6.6,0-116.2-30.1-116.2-36.7V765.9c0-6.6,5.4-12,12-18h227.8c6.6,6,12,11.4,12,18
	v257.2C910.6,1029.7,905.2,1035.1,898.6,1035.1z"/>
<rect x="704.5" y="826.8" class="st2" width="169.6" height="189.5"/>
<rect x="741.5" y="671.2" class="st2" width="95.7" height="76.7"/>
<rect x="717.5" y="637.4" class="st2" width="134.1" height="33.8"/>
<rect x="764.1" y="435.6" transform="matrix(0.796 0.6053 -0.6053 0.796 609.2617 -320.6014)" class="st3" width="32.4" height="615.9"/>
<rect x="769.2" y="439.5" transform="matrix(-0.7835 0.6214 -0.6214 -0.7835 1865.1171 844.9395)" class="st3" width="32.4" height="615.9"/>
</svg>
