<?xml version="1.0" encoding="utf-8"?>
<!-- Generator: Adobe Illustrator 22.0.0, SVG Export Plug-In . SVG Version: 6.00 Build 0)  -->
<svg version="1.1" id="Layer_1" xmlns="http://www.w3.org/2000/svg" xmlns:xlink="http://www.w3.org/1999/xlink" x="0px" y="0px"
	 viewBox="0 0 1920 1080" style="enable-background:new 0 0 1920 1080;" xml:space="preserve">
<style type="text/css">
	.st0{fill:#FFFFFF;stroke:#000000;stroke-width:14;stroke-miterlimit:10;}
	.st1{fill:#FBB03B;stroke:#000000;stroke-width:14;stroke-miterlimit:10;}
	.st2{fill:none;}
	.st3{font-family:'MyriadPro-Regular';}
	.st4{font-size:71px;}
</style>
<ellipse class="st0" cx="931.4" cy="753" rx="319.3" ry="302.8"/>
<polygon class="st1" points="1069.6,1028.4 976.4,1050.8 897.5,1050.8 796.3,1028.4 796.3,700.7 1069.6,700.7 "/>
<rect x="772.8" y="660.6" class="st0" width="311.8" height="69.7"/>
<rect x="847.6" y="793.1" class="st0" width="170.7" height="249.9"/>
<rect x="873.9" y="836.2" width="96.5" height="12.9"/>
<rect x="874.8" y="855.5" width="42.4" height="8.2"/>
<rect x="872.8" y="870.1" width="66.2" height="5.9"/>
<rect x="874.4" y="881.7" width="95.6" height="12.8"/>
<rect x="874.1" y="906.8" transform="matrix(-1 -1.224647e-16 1.224647e-16 -1 1857.2941 1823.2943)" width="109.2" height="9.7"/>
<rect x="874.6" y="927.1" width="96.5" height="12.9"/>
<rect x="875.4" y="946.3" width="42.4" height="8.2"/>
<rect x="873.4" y="961" width="66.2" height="5.9"/>
<rect x="875" y="972.6" width="95.6" height="12.8"/>
<rect x="874.7" y="997.6" transform="matrix(-1 -1.224647e-16 1.224647e-16 -1 1858.5221 2005.0002)" width="109.2" height="9.7"/>
<rect x="803.4" y="626.8" class="st0" width="248.2" height="33.8"/>
<rect x="789.2" y="561.4" class="st2" width="276.5" height="99.3"/>
<text transform="matrix(1 0 0 1 789.1984 611.7623)" class="st3 st4">PainKiller </text>
</svg>
