<?xml version="1.0" encoding="utf-8"?>
<!-- Generator: Adobe Illustrator 22.0.0, SVG Export Plug-In . SVG Version: 6.00 Build 0)  -->
<svg version="1.1" id="Layer_1" xmlns="http://www.w3.org/2000/svg" xmlns:xlink="http://www.w3.org/1999/xlink" x="0px" y="0px"
	 viewBox="0 0 1920 1080" style="enable-background:new 0 0 1920 1080;" xml:space="preserve">
<style type="text/css">
	.st0{fill:#FFFFFF;stroke:#000000;stroke-width:14;stroke-miterlimit:10;}
	.st1{fill:#0071BC;stroke:#000000;stroke-width:14;stroke-miterlimit:10;}
	.st2{fill:#ED1C24;stroke:#000000;stroke-width:14;stroke-miterlimit:10;}
	.st3{fill:#29ABE2;stroke:#000000;stroke-width:14;stroke-miterlimit:10;}
</style>
<circle class="st0" cx="920.6" cy="774.1" r="305.9"/>
<circle class="st0" cx="920.6" cy="774.1" r="266.1"/>
<path class="st1" d="M1013.5,1018.2l-37.8,15.5c-2.5,1-5.3,1.6-8,1.6l-87.7,1.1c-2.6,0-5.2-0.4-7.6-1.3l-48.5-17.4
	c-8.7-3.1-14.5-11.3-14.5-20.5V715.4c0-12.1,9.8-21.8,21.8-21.8h174c12.1,0,21.8,9.8,21.8,21.8V998
	C1027,1006.9,1021.7,1014.9,1013.5,1018.2z"/>
<circle class="st0" cx="920.6" cy="847.9" r="88.1"/>
<path class="st2" d="M898.4,849c-21.2,39,33.1,76.9,0,76.9c-33.1,0-59.9-34.4-59.9-76.9c0-42.4,26.8-76.9,59.9-76.9
	C931.5,772.1,917.3,814.2,898.4,849z"/>
<path class="st3" d="M938.5,843.6c20.9-41.4-26.6-98.3,0-81.5c28.8,18.3,58.9,36.5,58.9,81.5s-31.4,102.5-58.9,81.5
	C911.9,904.8,919.9,880.6,938.5,843.6z"/>
</svg>
