<?xml version="1.0" encoding="utf-8"?>
<!-- Generator: Adobe Illustrator 22.0.0, SVG Export Plug-In . SVG Version: 6.00 Build 0)  -->
<svg version="1.1" id="Layer_1" xmlns="http://www.w3.org/2000/svg" xmlns:xlink="http://www.w3.org/1999/xlink" x="0px" y="0px"
	 viewBox="0 0 1920 1080" style="enable-background:new 0 0 1920 1080;" xml:space="preserve">
<style type="text/css">
	.st0{fill:#FFFFFF;stroke:#000000;stroke-width:12;stroke-miterlimit:10;}
	.st1{fill:none;}
	.st2{fill:none;stroke:#000000;stroke-width:12;stroke-miterlimit:10;}
</style>
<circle class="st0" cx="835.7" cy="547" r="305.3"/>
<ellipse class="st0" cx="836.7" cy="590.6" rx="260.8" ry="237.7"/>
<path id="SVGID_x5F_1_x5F_" class="st1" d="M1096.5,590.9c0,142-115.1,257.1-257.1,257.1S582.4,732.9,582.4,590.9
	s115.1-257.1,257.1-257.1S1096.5,449,1096.5,590.9z"/>
<text><textPath  xlink:href="#SVGID_x5F_1_x5F_" startOffset="129.0365%">
<tspan  style="font-family:'MyriadPro-Regular'; font-size:75px;">                                                                   Merry         chrismas</tspan></textPath>
</text>
<ellipse class="st0" cx="839.4" cy="462.7" rx="83.9" ry="76.4"/>
<ellipse class="st0" cx="839.3" cy="599.8" rx="120.7" ry="110"/>
<ellipse class="st0" cx="846.3" cy="726.6" rx="179.4" ry="125.7"/>
<g>
	<line class="st2" x1="724.5" y1="394.1" x2="739.8" y2="424.5"/>
	<line class="st2" x1="768.6" y1="424.6" x2="739.8" y2="424.5"/>
	<line class="st2" x1="912.5" y1="429.2" x2="938.7" y2="424.5"/>
	<line class="st2" x1="724.5" y1="394.1" x2="759.8" y2="378.6"/>
	<line class="st2" x1="766.9" y1="324.5" x2="759.8" y2="378.6"/>
	<line class="st2" x1="771.6" y1="302.1" x2="766.9" y2="324.5"/>
	<line class="st2" x1="883.4" y1="299.8" x2="771.6" y2="302.1"/>
	<line class="st2" x1="947.1" y1="415.3" x2="938.8" y2="425.8"/>
	<line class="st2" x1="925.6" y1="386.3" x2="947.1" y2="415.3"/>
	<line class="st2" x1="883.4" y1="299.8" x2="905.7" y2="376.2"/>
	<line class="st2" x1="925.6" y1="386.3" x2="905.7" y2="376.2"/>
	<line class="st2" x1="768.6" y1="424.6" x2="912.5" y2="429.2"/>
</g>
<g>
	<g>
		<path d="M734.2,404c4.1,0.6,7.1,3.1,7.2,7.5c3.8-2.2,7.5-4.3,11.3-6.5c-1.5-1.1-3-2.1-4.6-3.2c-1.9,4.6-3.9,9.1-5.8,13.7
			c15.4,3.9,31.4-5.2,35.9-20.4c2.5-8.6-9-12.3-13.7-5.8c-2.4,3.3-4.8,6.6-7.1,9.9c-3.7,5.1,2.5,13.4,8.5,11c6.6-2.7,12.4-6,18-10.4
			c4.7-3.7,1.5-11-3.3-12.5c-10.3-3.2-20.9-5-31.7-5.3c2.2,3.8,4.3,7.5,6.5,11.3c2.7-5.3,6.4-9.5,11.4-12.7c-3.7-1.5-7.3-3-11-4.5
			c0.6,3.4,1.2,6.9,1.8,10.3c1.1,6.2,11,7.4,13.7,1.8c10.9-22.7,17.3-47,18.9-72.2c0.5-7.5-10.4-10.1-14-3.8
			c-7,12.4-7.5,26.5-7.7,40.5c-0.2,11.1-0.2,24.2-7.3,33.4c-3.6,4.7-9.5,7-12.8,12c-3.7,5.6-3,13.1,2.4,17.4
			c4.8,3.8,11.1,3.7,16.8,3c8.2-1,16.4-2.1,24.6-3.2c18.7-2.4,37.5-4.8,56.2-7.2c-0.7-4.9-1.3-9.8-2-14.7c-13,2.2-26.3,1.8-39.1-0.9
			c0,4.8,0,9.6,0,14.5c12.6-5.3,25.7-9.3,39.1-12c5.4-1.1,7.4-8.9,3.3-12.5c-9.5-8.5-21.1-13-32.8-17.4
			c-10.2-3.8-21.9-7.7-28.7-16.8c-3.9,3-7.9,6.1-11.8,9.1c3.9,4.1,7.2,8.9,9.3,14.2c3.2,7.8,13.9,6.7,14.7-2c1-10.6,1.3-21.2,1-31.8
			c-0.3-8.9-11.7-9.6-14.7-2c-4.8,12-8.2,24.4-10.1,37.1c-1.4,9.6,10.8,13,14.5,4c6.5-15.9,11.9-32.2,16-49c-4.8-1.3-9.6-2.7-14.5-4
			c-3.7,18.2-8.7,36-14.8,53.5c4.8,1.3,9.6,2.7,14.5,4c3-20.7,8.5-41,16.6-60.3c-4.7-1.3-9.3-2.5-14-3.8c-2.7,20.3-6.7,40.3-12,60.1
			c4.9,0.7,9.8,1.3,14.7,2c1.9-18.1,3.7-36.3,5.6-54.4c0.9-8.4-13.1-10.3-14.7-2c-3.5,17.3-6.9,34.6-10.4,52
			c-1.9,9.4,12.5,13.5,14.5,4c2.9-13.9,5.9-27.9,8.8-41.8c2-9.4-12-13.4-14.5-4c-4.9,18.3-11,36.3-18.3,53.8c4.9,0.7,9.8,1.3,14.7,2
			c1.1-11.6,3.5-23,6.9-34.1c2.9-9.4-11.1-12.8-14.5-4c-0.9,2.3-1.8,4.7-2.7,7c4.9,0.7,9.8,1.3,14.7,2c-0.1-11.5-0.2-23.1-0.4-34.6
			c-0.1-8.8,0.6-21-10.3-23.7c-0.7,4.9-1.3,9.8-2,14.7c12.7,0.7,25.3,1.4,38,2.2c-2.2-3.8-4.3-7.5-6.5-11.3
			c-7,11.2-11.9,23.6-14.7,36.5c-1.1,5.2,3.5,11.3,9.2,9.2c16.1-5.8,28.3-18.2,33.6-34.5c2.6-8-9.9-13.4-13.7-5.8
			c-6.1,12.2-10.5,25-13,38.4c-1.8,9.7,10.8,12.8,14.5,4c5.7-13.7,8.6-28.3,8.9-43.2c0.2-7-8.1-9.2-12.8-5.3
			c-12.9,10.7-21.8,25.7-25.1,42.1c-1.7,8.4,8.9,13,13.7,5.8c8-12,15.4-24.4,22-37.2c-4.6-1.9-9.1-3.9-13.7-5.8
			c-4.7,17.8-8.3,35.8-11,54c-1,7,6.7,13,12.5,7.3c14.3-13.8,26-30.1,34.6-48c-4.6-1.9-9.1-3.9-13.7-5.8
			c-3.1,10.7-7.3,20.8-12.6,30.6c4.6,1.9,9.1,3.9,13.7,5.8c4-11,8.1-22,12.1-33c2.8-7.7-7.4-11.5-12.5-7.3
			c-10.7,8.8-20,18.9-28.2,30.2c4.3,2.5,8.6,5,13,7.6c7.5-14.3,13.7-29.2,18.7-44.5c2.3-7.2-7.5-12.6-12.5-7.3
			c-9,9.4-17.3,19.5-24.8,30.1c4.7,1.3,9.3,2.5,14,3.8c0.6-6.3,3.6-11.7,8.2-16c-3.9-0.5-7.9-1-11.8-1.5c6.1,12.6,2.1,27.9-8.1,36.9
			c4.2,1.1,8.4,2.2,12.5,3.3c-2.3-8-1.9-15.7,0.9-23.6c-4.8-1.3-9.6-2.7-14.5-4c-3.4,11.7-6.8,23.4-10.2,35.2
			c-2.5,8.8,8.9,12.1,13.7,5.8c5.1-6.6,10.2-13.2,15.3-19.9c-4.6-1.9-9.1-3.9-13.7-5.8c-2.1,15.2-7.3,29.4-15.8,42.2
			c4.6,0.6,9.1,1.2,13.7,1.8c-1.9-5.1-2.1-9.8-0.6-15c2.9-9.5-10.9-12.7-14.5-4c-4.1,10.1-10.6,19-18.5,26.5c3.9,0.5,7.9,1,11.8,1.5
			c-2.3-3.7-4.6-7.3-6.9-11c-2.4-3.8-8.5-5.3-11.8-1.5c-7.4,8.5-15.3,16.4-23.8,23.7c-5.9,5.1,0.4,14.3,7.3,12.5
			c22.1-5.6,43.1-15.2,61.8-28.2c-3.7-1.5-7.3-3-11-4.5c1.6,10.9,3.9,21.7,6.6,32.3c1.5,5.9,8.3,6.7,12.5,3.3
			c6.3-5.2,10.9-12.6,12.7-20.6c1.6-7.2,2.3-18.6-4.4-23.6c-8.8-6.6-17.3,2.6-23.5,8.2c-7.6,7-15.1,13.9-22.7,20.9
			c-4.5,4.2-1.2,13.4,5.3,12.8c10.1-0.9,20.3-1.9,30.4-2.8c9.4-0.9,9.8-15,0-15c-13.7,0-27.4,0-41.1,0c0.7,4.9,1.3,9.8,2,14.7
			c8.8-2.1,17.5-3.2,26.6-3.2c0-5,0-10,0-15c-10.6,1.4-21.2,2.8-31.8,4.2c0.7,4.9,1.3,9.8,2,14.7c23.4-6.5,47.2-11.7,71.2-15.5
			c-1.3-4.8-2.7-9.6-4-14.5c-2.1,0.5-4.2,1-6.3,1.5c1.3,4.8,2.7,9.6,4,14.5c5.6-1.5,11.1-3.1,16.7-4.6c6.7-1.8,7.6-13.2,0-14.5
			c-10-1.7-19.6-1.6-29.6,0.2c-7.5,1.4-6.7,12.6,0,14.5c9.2,2.6,18.7,3.9,28.3,4c-1.3-4.7-2.5-9.3-3.8-14
			c-5.4,2.9-10.8,5.7-16.2,8.6c-6.9,3.6-3.3,13.7,3.8,14c12.9,0.5,25.8,1,38.7,1.5c8.3,0.3,10.5-13.6,2-14.7
			c-15.3-2.1-30.4-2.4-45.7-0.5c-4,0.5-7.5,3.1-7.5,7.5c0,4,3.4,7.6,7.5,7.5c11.3-0.2,22.5-0.5,33.8-0.7c0-5,0-10,0-15
			c-14.9,1.9-29.9,3.9-44.8,5.8c-9.6,1.2-9.7,13.9,0,15c19.2,2.3,38.4,3.5,57.8,3.6c8.3,0.1,10.4-12.8,2-14.7
			c-10.1-2.3-20.3-3.5-30.7-3.4c-8.1,0.1-10.6,13.4-2,14.7c16.6,2.6,33.3,3.2,50,1.5c7.1-0.7,10.6-9.9,3.8-14
			c-8.2-4.9-17-7.6-26.5-8.5c0,5,0,10,0,15c3.7,0,7.3-0.1,11-0.1c6.2-0.1,10.3-8.3,5.3-12.8c-9.7-8.7-21.3-13.6-34.3-14.7
			c2.2,3.8,4.3,7.5,6.5,11.3c8.8-15.6,1.3-32.9-7.6-46.6c-4.7-7.3-11.8-12.7-20.2-6.9c-7.5,5.1-13.7,13.3-19.2,20.4
			c4.2,1.1,8.4,2.2,12.5,3.3c-1-3.8-0.5-6.7,1-10.3c-4.8-1.3-9.6-2.7-14.5-4c-1.5,7.3-2,14.5-1.1,21.9c0.8,7.3,9.6,10.4,14,3.8
			c5.6-8.5,10.1-17.6,13.7-27.2c-4.9-0.7-9.8-1.3-14.7-2c-0.5,6.5-2.3,12.5-5.4,18.2c4.6,1.9,9.1,3.9,13.7,5.8
			c5.3-15,9.1-30.5,11.5-46.2c0.6-4-1-8-5.2-9.2c-3.8-1.1-8.3,1.3-9.2,5.2c-2.5,10.9-5,21.8-7.5,32.7c4.8,1.3,9.6,2.7,14.5,4
			c1.7-12,2.5-23.9,1.8-35.9c-0.3-6.1-8.2-10.5-12.8-5.3c-6.3,7-6.2,16.3-0.2,23.5c2.4,2.9,8.3,3,10.6,0
			c6.9-8.8,11.7-18.7,13.4-29.8c1.5-9.6-10.9-13-14.5-4c-3.2,8.1-5,16.5-5.8,25.2c-0.8,8.3,13.3,10.3,14.7,2
			c1.1-6.5,2.3-13,3.4-19.5c0.7-3.7-0.7-7.3-4.3-8.8c-3.1-1.3-7.8-0.3-9.4,3.1c-3.2,7.1-6.5,14.3-9.7,21.4c4.6,0.6,9.1,1.2,13.7,1.8
			c-1.6-6.7-1.9-13.4-0.7-20.2c-4.9-0.7-9.8-1.3-14.7-2c1,9.1,4.6,17.3,11.4,23.5c2.5,2.2,6.1,2.9,9.1,1.2
			c5.4-3.2,10.3-7.1,14.7-11.6c-4.3-1.8-8.5-3.5-12.8-5.3c0.8,12.8,1.1,25.7,0.7,38.6c5,0,10,0,15,0c-0.1-13.7-0.1-27.4-0.2-41.1
			c0-7.3-10.4-10.4-14-3.8c-9.3,17.1-16.7,35.2-22,54c4.9,0.7,9.8,1.3,14.7,2c1.6-14.7,5.3-29,10.5-42.8c-4.9-0.7-9.8-1.3-14.7-2
			c-1.4,14.1-2.7,28.2-4.1,42.3c-0.7,7.7,10.4,9.8,14,3.8c8.6-14.4,14.4-30.2,17-46.8c1.5-9.6-10.8-13-14.5-4
			c-5.2,13-7.8,26.8-7.8,40.8c0,7.4,10.3,10.3,14,3.8c9-15.9,11.8-33.7,8.8-51.6c-1.1-6.8-10.5-6.7-13.7-1.8
			c-10.7,16.3-17.1,34.6-19.5,53.9c-1,7.5,10.7,10,14,3.8c7.3-13.7,13-28.2,16.7-43.2c-4.8-1.3-9.6-2.7-14.5-4
			c-3.2,15.5-6.4,30.9-9.6,46.4c-1.6,7.8,10.2,14.1,13.7,5.8c5.4-12.6,8.4-25.7,8.7-39.4c0.2-9-11.8-9.5-14.7-2
			c-5.5,14.3-11,28.6-16.6,42.9c4.9,0.7,9.8,1.3,14.7,2c2.1-23.5,3.2-47.1,3.5-70.8c-2.5,2.5-5,5-7.5,7.5c6.9-0.6,13.9-1.1,20.8-1.7
			c2.3-0.2,5.4,0.2,7.7-0.3c0.2-0.1,1.3,0.5,1.5,0.3c0.8,0.2,0.7-0.6-0.5-2.3c-0.3,0.6-0.7,1.2-1.2,1.7c-3.8,4.9-7.3,9.2-9.7,15
			c-2.4,6-3.5,12.4-3.3,18.8c0.3,8.5,12.2,10.1,14.7,2c3.6-11.3,5.2-23.1,4.9-34.9c-0.2-7.6-9.9-10-14-3.8c-6.8,10.3-10,22.6-9.2,35
			c0.5,6.8,10.5,11,14,3.8c2.9-5.9,4.5-11.6,5.3-18.1c1.1-8.7-12.3-9.7-14.7-2c-3.9,12.5-5.4,25.7-4.3,38.8
			c0.5,5.9,8.1,10.6,12.8,5.3c5-5.7,8.6-12,10.8-19.2c-4.8-1.3-9.6-2.7-14.5-4c-3.2,12.7-6.4,25.4-9.5,38.1c4.9,0.7,9.8,1.3,14.7,2
			c-0.8-9.7-1.5-19.3-2.3-29c-0.4-5.1-6.3-10.1-11.3-6.5c-9.3,6.7-15.9,15.6-19.4,26.6c-2.2,7.1,7.5,12.8,12.5,7.3
			c4.5-4.8,8.9-9.7,13.4-14.5c-4.3-1.8-8.5-3.5-12.8-5.3c-0.4,4.6-2,8.8-4.5,12.7c4.6,1.9,9.1,3.9,13.7,5.8
			c5-16.1,10.8-31.9,17.5-47.3c-4.6-1.9-9.1-3.9-13.7-5.8c-2.4,7.7-3.3,15.7-2.6,23.8c0.5,6.5,10.7,11.3,14,3.8
			c4.3-10.1,7-20.2,8.2-31.2c0.8-7.6-10.6-9.9-14-3.8c-7.3,13.1-9.2,28.1-5.7,42.6c1.9,7.5,12.2,6.7,14.5,0
			c4.4-13.5,6-27.7,4.5-41.8c-0.8-7.9-12.5-10.8-14.7-2c-4,15.6-5.7,31.7-4.9,47.8c0.4,7.9,13.5,10.8,14.7,2
			c1.9-13.7,3.8-27.3,5.6-41c-4.9-0.7-9.8-1.3-14.7-2c-1.8,19.4-1.1,38.8,1.7,58.1c1.1,7.8,12.4,6.4,14.5,0c4.4-13.9,7-28.2,8-42.7
			c0.6-8.3-13.2-10.3-14.7-2c-2.4,13-4,26.1-4.6,39.3c-0.4,9.7,14.2,9.5,15,0c1.3-15.9,1.1-31.8-0.7-47.6c-1.1-9.5-14.2-9.8-15,0
			c-0.7,8.4-1.4,16.8-2.1,25.3c5,0,10,0,15,0c-0.7-10-1.5-20.1-2.2-30.1c-4.9,0.7-9.8,1.3-14.7,2c1.9,4.6,3.4,9.3,4,14.2
			c4.9-0.7,9.8-1.3,14.7-2c-0.8-5.4-1.5-10.7-2.3-16.1c-1.2-8.6-14.6-6.2-14.7,2c-0.2,13.9,1,27.7,3.5,41.4c1.3,7.1,13.3,7.2,14.5,0
			c1.9-11.7,3.7-23.3,5.6-35c-4.9-0.7-9.8-1.3-14.7-2c-0.6,15.7-0.3,31.4,0.7,47c0.6,9.6,14.9,9.7,15,0c0.2-10.8,0.3-21.6,0.5-32.4
			c0.1-9.7-14.6-9.6-15,0c-0.6,16.2-0.8,32.5-0.4,48.7c0.2,9,11.7,9.5,14.7,2c2.9-7.1,5.8-14.1,8.7-21.2c-4.8,0-9.6,0-14.5,0
			c2.2,9.1,4.3,18.2,6.5,27.3c1.9,8,15.8,6.5,14.7-2c-1-8.3-2-16.6-3.1-24.8c-1.1-9.3-15-9.9-15,0c0,7.4,0.1,14.9,0.1,22.3
			c4.9-0.7,9.8-1.3,14.7-2c-4.5-10.7-8-21.6-10.6-32.9c-0.9-3.9-5.4-6.3-9.2-5.2c-4.3,1.2-5.8,5.2-5.2,9.2
			c1.4,10.1,4.3,19.5,8.5,28.8c3.6,8,15.5,2.1,13.7-5.8c-2.7-11.7-5.3-23.3-8-35c-1.9-8.1-15.3-6.5-14.7,2
			c1.2,19.3,8.3,37.1,20.7,52c2.6,3.1,8,2.7,10.6,0c5.5-5.5,8.5-13.1,7.4-20.9c-0.5-3.7-2.5-6.9-6.5-7.4c-3.4-0.4-7.5,1.7-8.2,5.4
			c-1.7,9.4-1.7,18.4,0.3,27.8c1.5,7.1,13,7.2,14.5,0c1.8-8.5,3.5-17,5.3-25.5c1.6-7.8-10-14-13.7-5.8c-3.9,8.7-5,17.3-3.1,26.7
			c1.3,6.6,10.5,6.9,13.7,1.8c4-6.4,6-13.6,5.9-21.2c-0.1-7.1-10.5-10.6-14-3.8c-4,7.9-5,16.4-2.5,25c1.1,3.6,5.3,6.7,9.2,5.2
			c4.9-1.8,8.9-4.8,11-9.6c-3.9,0.5-7.9,1-11.8,1.5c1.9,1.7,3.9,3.5,5.8,5.2c2.7,2.4,8,3.3,10.6,0c2.9-3.7,4.4-7.1,4.5-11.8
			c0.1-6.4-8.3-10.1-12.8-5.3c-3.8,4-8.1,6.4-13.5,7.5c2.8,1.1,5.6,2.3,8.5,3.4c-16.9-27.3-29.5-56.9-37.5-88.1
			c-1.3-5.2-8.8-7.6-12.5-3.3c-10,11.5-20.8,24.1-35.8,28.8c-13.8,4.3-29.2,4.7-39.7,15.9c-5.2,5.5-8.4,12.3-11.9,18.9
			c-2.9,5.4-6.6,12.3-12.9,14.4c-6.7,2.3-14.1-3.5-20.3-5.2c-7.8-2-15.5-1.1-21.7,4.2c-7.3,6.3,3.3,16.9,10.6,10.6
			c4.3-3.7,14.2,2.4,18.3,3.9c7.6,2.7,15.7,2.5,22.8-1.6c6.3-3.7,11.1-9.7,14.6-15.9c3.6-6.2,6.1-13.3,11-18.6
			c9.6-10.3,27-9.2,39.3-14.4c14.8-6.3,25.8-18.5,36.2-30.3c-4.2-1.1-8.4-2.2-12.5-3.3c8.3,32.3,21.5,63.3,39,91.7
			c1.9,3,5.1,4.1,8.5,3.4c7.8-1.6,14.7-5.6,20.1-11.3c-4.3-1.8-8.5-3.5-12.8-5.3c0.1,0.4,0,0.8-0.1,1.2c3.5,0,7.1,0,10.6,0
			c-1.9-1.7-3.9-3.5-5.8-5.2c-3.2-2.9-9.7-3.2-11.8,1.5c-0.5,1.1-0.9,2.3-2.1,2.7c3.1,1.7,6.2,3.5,9.2,5.2
			c-1.4-4.6-1.3-9.1,0.9-13.4c-4.7-1.3-9.3-2.5-14-3.8c0.1,5-1.2,9.3-3.8,13.6c4.6,0.6,9.1,1.2,13.7,1.8c-1-5-0.5-10.4,1.6-15.1
			c-4.6-1.9-9.1-3.9-13.7-5.8c-1.8,8.5-3.5,17-5.3,25.5c4.8,0,9.6,0,14.5,0c-1.4-6.5-1.5-13.2-0.3-19.8c-4.9-0.7-9.8-1.3-14.7-2
			c0.5,4-0.1,7.4-3,10.3c3.5,0,7.1,0,10.6,0c-9.7-11.7-15.3-26.3-16.3-41.4c-4.9,0.7-9.8,1.3-14.7,2c2.7,11.7,5.3,23.3,8,35
			c4.6-1.9,9.1-3.9,13.7-5.8c-3.6-8-5.8-16.5-7-25.2c-4.8,1.3-9.6,2.7-14.5,4c2.6,11.2,6.2,22.2,10.6,32.9c3,7.3,14.8,7.2,14.7-2
			c0-7.4-0.1-14.9-0.1-22.3c-5,0-10,0-15,0c1,8.3,2,16.6,3.1,24.8c4.9-0.7,9.8-1.3,14.7-2c-2.2-9.1-4.3-18.2-6.5-27.3
			c-1.9-7.9-11.9-6.3-14.5,0c-2.9,7.1-5.8,14.1-8.7,21.2c4.9,0.7,9.8,1.3,14.7,2c-0.3-16.2-0.2-32.5,0.4-48.7c-5,0-10,0-15,0
			c-0.2,10.8-0.3,21.6-0.5,32.4c5,0,10,0,15,0c-1-15.7-1.2-31.3-0.7-47c0.3-8.3-13.4-10.5-14.7-2c-1.9,11.7-3.7,23.3-5.6,35
			c4.8,0,9.6,0,14.5,0c-2.2-12.4-3.1-24.8-2.9-37.4c-4.9,0.7-9.8,1.3-14.7,2c0.8,5.4,1.5,10.7,2.3,16.1c1.2,8.3,15.7,6.4,14.7-2
			c-0.7-6.3-2-12.3-4.5-18.2c-1.5-3.5-4.2-5.9-8.2-5.4c-3.4,0.5-6.8,3.6-6.5,7.4c0.7,10,1.5,20.1,2.2,30.1c0.7,9.7,14.2,9.6,15,0
			c0.7-8.4,1.4-16.8,2.1-25.3c-5,0-10,0-15,0c1.8,15.8,2,31.7,0.7,47.6c5,0,10,0,15,0c0.5-11.9,1.9-23.6,4-35.3
			c-4.9-0.7-9.8-1.3-14.7-2c-0.9,13.2-3.5,26.1-7.5,38.7c4.8,0,9.6,0,14.5,0c-2.6-17.9-2.8-36.1-1.2-54.1c0.8-8.3-13.6-10.4-14.7-2
			c-1.9,13.7-3.8,27.3-5.6,41c4.9,0.7,9.8,1.3,14.7,2c-0.7-14.8,0.7-29.4,4.4-43.8c-4.9-0.7-9.8-1.3-14.7-2
			c1.4,12.9,0.1,25.5-3.9,37.9c4.8,0,9.6,0,14.5,0c-2.6-10.6-1.2-21.5,4.1-31c-4.7-1.3-9.3-2.5-14-3.8c-0.9,8.1-3,16.1-6.2,23.6
			c4.7,1.3,9.3,2.5,14,3.8c-0.6-6.8,0.1-13.2,2.1-19.8c2.4-7.9-10.3-13.7-13.7-5.8c-7.3,16.6-13.7,33.6-19,50.9
			c-2.6,8.3,9.2,12.8,13.7,5.8c4-6.2,6-12.9,6.6-20.3c0.5-6.5-8.6-9.9-12.8-5.3c-4.5,4.8-8.9,9.7-13.4,14.5
			c4.2,2.4,8.4,4.9,12.5,7.3c2.2-7.1,6.4-13.3,12.5-17.6c-3.8-2.2-7.5-4.3-11.3-6.5c0.8,9.7,1.5,19.3,2.3,29c0.6,8,12.6,10.7,14.7,2
			c3.2-12.7,6.4-25.4,9.5-38.1c2.4-9.4-11.6-13.2-14.5-4c-1.5,4.7-3.7,8.9-7,12.6c4.3,1.8,8.5,3.5,12.8,5.3
			c-1.1-11.9,0.1-23.4,3.7-34.8c-4.9-0.7-9.8-1.3-14.7-2c-0.5,3.6-1.7,7.3-3.3,10.5c4.7,1.3,9.3,2.5,14,3.8
			c-0.7-9.9,1.7-19.1,7.1-27.4c-4.7-1.3-9.3-2.5-14-3.8c0.3,10.6-1.1,20.8-4.3,30.9c4.9,0.7,9.8,1.3,14.7,2
			c-0.2-7.4,1.7-14.5,6.2-20.4c4.7-6.1,11-12.4,6.2-20.7c-3.3-5.8-10.2-7.5-16.4-7.5c-8.7,0-17.7,1.3-26.4,2
			c-4.1,0.3-7.5,3.2-7.5,7.5c-0.2,23.6-1.4,47.2-3.5,70.8c-0.3,3.7,3.1,7,6.5,7.4c3.9,0.5,6.8-1.8,8.2-5.4
			c5.5-14.3,11-28.6,16.6-42.9c-4.9-0.7-9.8-1.3-14.7-2c-0.3,10.9-2.4,21.8-6.7,31.9c4.6,1.9,9.1,3.9,13.7,5.8
			c3.2-15.5,6.4-30.9,9.6-46.4c1.9-9.4-12.1-13.4-14.5-4c-3.4,13.8-8.4,27-15.2,39.6c4.7,1.3,9.3,2.5,14,3.8
			c2.1-16.6,8.3-32.3,17.5-46.3c-4.6-0.6-9.1-1.2-13.7-1.8c2.3,13.8-0.5,28-7.3,40.1c4.7,1.3,9.3,2.5,14,3.8c0-12.7,2.5-25,7.3-36.8
			c-4.8-1.3-9.6-2.7-14.5-4c-2.4,15.4-7.6,29.8-15.5,43.2c4.7,1.3,9.3,2.5,14,3.8c1.4-14.1,2.7-28.2,4.1-42.3c0.4-3.7-3.1-7-6.5-7.4
			c-3.9-0.5-6.9,1.8-8.2,5.4c-5.7,15.1-9.3,30.7-11.1,46.8c-1,8.6,12.5,9.9,14.7,2c5-17.6,11.8-34.4,20.5-50.4
			c-4.7-1.3-9.3-2.5-14-3.8c0.1,13.7,0.1,27.4,0.2,41.1c0,9.7,14.7,9.6,15,0c0.4-12.9,0.1-25.7-0.7-38.6c-0.4-6.3-8-10.2-12.8-5.3
			c-3.6,3.6-7.4,6.6-11.7,9.2c3,0.4,6.1,0.8,9.1,1.2c-3.8-3.4-6.5-7.7-7-12.9c-0.4-3.7-2.6-6.9-6.5-7.4c-3.4-0.4-7.6,1.7-8.2,5.4
			c-1.7,9.5-1.6,18.8,0.7,28.2c1.4,5.9,11,7.8,13.7,1.8c3.2-7.1,6.5-14.3,9.7-21.4c-4.6-1.9-9.1-3.9-13.7-5.8
			c-1.1,6.5-2.3,13-3.4,19.5c4.9,0.7,9.8,1.3,14.7,2c0.7-7.3,2.6-14.4,5.3-21.2c-4.8-1.3-9.6-2.7-14.5-4c-1.3,8.4-4.3,16.4-9.5,23.2
			c3.5,0,7.1,0,10.6,0c-0.5-0.6-0.3-1.7,0.2-2.3c-4.3-1.8-8.5-3.5-12.8-5.3c0.6,10.7,0.3,21.4-1.3,32c-0.6,4,1,8,5.2,9.2
			c3.8,1.1,8.3-1.3,9.2-5.2c2.5-10.9,5-21.8,7.5-32.7c-4.8-1.3-9.6-2.7-14.5-4c-2.4,15.8-6.2,31.2-11.5,46.2
			c-2.8,8,9.7,13.2,13.7,5.8c4.4-8.1,6.8-16.6,7.4-25.8c0.6-9-12-9.4-14.7-2c-3.1,8.3-7.2,16.2-12.2,23.6c4.7,1.3,9.3,2.5,14,3.8
			c-0.7-6-0.6-12,0.6-17.9c2-9.7-10.8-12.8-14.5-4c-2.4,5.9-2.6,12.2-1,18.3c1.3,5,9,7.8,12.5,3.3c3.8-4.8,7.8-9.5,12.1-13.9
			c1-1.1,2.5-2.1,3.3-3.3c0.3-0.3,0.7-0.7,1-1c1.1-0.9,0.3-1.2-2.5-1.1c-0.1,0.3,3.7,5.6,4.1,6.2c4.8,8,10.6,18.9,5.4,28
			c-3,5.3,0.9,10.8,6.5,11.3c8.8,0.8,17.1,4.5,23.7,10.3c1.8-4.3,3.5-8.5,5.3-12.8c-3.7,0-7.3,0.1-11,0.1c-9.8,0.1-9.5,14.1,0,15
			c6.8,0.6,13.1,2.9,19,6.4c1.3-4.7,2.5-9.3,3.8-14c-15.3,1.6-30.8,1.4-46-1c-0.7,4.9-1.3,9.8-2,14.7c9-0.1,17.9,0.8,26.7,2.8
			c0.7-4.9,1.3-9.8,2-14.7c-19.3-0.1-38.6-1.3-57.8-3.6c0,5,0,10,0,15c14.9-1.9,29.9-3.9,44.8-5.8c4-0.5,7.5-3.1,7.5-7.5
			c0-4-3.4-7.6-7.5-7.5c-11.3,0.2-22.5,0.5-33.8,0.7c0,5,0,10,0,15c13.8-1.7,27.9-1.9,41.8,0c0.7-4.9,1.3-9.8,2-14.7
			c-12.9-0.5-25.8-1-38.7-1.5c1.3,4.7,2.5,9.3,3.8,14c5.4-2.9,10.8-5.7,16.2-8.6c6.7-3.6,3.4-13.9-3.8-14c-8.3,0-16.3-1.2-24.3-3.4
			c0,4.8,0,9.6,0,14.5c7.1-1.3,14.4-1.4,21.6-0.2c0-4.8,0-9.6,0-14.5c-5.6,1.5-11.1,3.1-16.7,4.6c-9.3,2.6-5.4,16.7,4,14.5
			c2.1-0.5,4.2-1,6.3-1.5c9.6-2.3,5.3-15.9-4-14.5c-24,3.8-47.8,8.9-71.2,15.5c-7.8,2.2-6.6,15.9,2,14.7c10.6-1.4,21.2-2.8,31.8-4.2
			c4-0.5,7.5-3.1,7.5-7.5c0-4.1-3.4-7.5-7.5-7.5c-10.3,0-20.5,1.3-30.5,3.8c-8.3,2-6.4,14.7,2,14.7c13.7,0,27.4,0,41.1,0
			c0-5,0-10,0-15c-10.1,0.9-20.3,1.9-30.4,2.8c1.8,4.3,3.5,8.5,5.3,12.8c5.2-4.8,10.4-9.6,15.6-14.4c2.4-2.2,4.7-4.4,7.1-6.5
			c1.4-1.3,5.1-6.1,7-6c-1.3-0.3-2.5-0.7-3.8-1c1.4,0.6-1,10.1-1.5,11.4c-1.6,4.3-4.4,7.6-7.8,10.4c4.2,1.1,8.4,2.2,12.5,3.3
			c-2.8-10.7-5-21.4-6.6-32.3c-0.7-4.6-7.4-7-11-4.5c-17.8,12.4-37.3,21.4-58.2,26.7c2.4,4.2,4.9,8.4,7.3,12.5
			c8.5-7.3,16.4-15.2,23.8-23.7c-3.9-0.5-7.9-1-11.8-1.5c2.3,3.7,4.6,7.3,6.9,11c2.6,4.2,8.2,4.9,11.8,1.5
			c9.9-9.3,17.3-20.5,22.4-33.1c-4.8-1.3-9.6-2.7-14.5-4c-2.3,7.6-2.2,15.5,0.6,23c2.2,6.1,10,7.4,13.7,1.8
			c9.1-13.8,15.1-29.4,17.3-45.8c1.2-8.6-8.4-12.7-13.7-5.8c-5.1,6.6-10.2,13.2-15.3,19.9c4.6,1.9,9.1,3.9,13.7,5.8
			c3.4-11.7,6.8-23.4,10.2-35.2c2.7-9.4-11.3-13-14.5-4c-3.6,10.2-3.8,21.2-0.9,31.6c1.6,5.7,8.4,7,12.5,3.3
			c15.5-13.7,19.3-36.7,10.5-55.1c-2.2-4.5-8.5-4.6-11.8-1.5c-7.6,7.1-11.7,16.3-12.6,26.6c-0.7,8.1,10.1,9.2,14,3.8
			c6.8-9.6,14.3-18.6,22.5-27.1c-4.2-2.4-8.4-4.9-12.5-7.3c-4.6,14.1-10.3,27.8-17.2,40.9c-4.5,8.7,7.3,15.3,13,7.6
			c7.4-10.1,16.2-19.2,25.9-27.1c-4.2-2.4-8.4-4.9-12.5-7.3c-4,11-8.1,22-12.1,33c-2.9,8,9.7,13.2,13.7,5.8
			c5.9-10.9,10.6-22.3,14.1-34.2c2.4-8-10-13.6-13.7-5.8c-8,16.9-18.8,32-32.2,45c4.2,2.4,8.4,4.9,12.5,7.3c2.6-18.2,6.3-36.2,11-54
			c2.1-8-9.7-13.5-13.7-5.8c-6.6,12.8-13.9,25.2-22,37.2c4.6,1.9,9.1,3.9,13.7,5.8c2.9-14.2,10.1-26.3,21.3-35.5
			c-4.3-1.8-8.5-3.5-12.8-5.3c-0.3,13.6-3.2,26.6-8.4,39.2c4.8,1.3,9.6,2.7,14.5,4c2.2-12.1,6-23.8,11.5-34.8
			c-4.6-1.9-9.1-3.9-13.7-5.8c-3.6,11-12.2,20.1-23.2,24c3.1,3.1,6.2,6.2,9.2,9.2c2.5-11.8,6.8-22.7,13.1-32.9
			c3.1-5.1-1-11-6.5-11.3c-12.7-0.7-25.3-1.4-38-2.2c-8.5-0.5-10.2,12.7-2,14.7c-1.4-2-1.7-2.1-1-0.3c0.1,0.4,0.1,0.8,0.1,1.2
			c0.2,1.8,0.1,3.6,0.1,5.4c0,4.2,0.1,8.3,0.1,12.5c0.1,8.3,0.2,16.7,0.3,25c0.1,8.9,11.8,9.6,14.7,2c0.9-2.3,1.8-4.7,2.7-7
			c-4.8-1.3-9.6-2.7-14.5-4c-3.8,12.4-6.2,25.2-7.5,38.1c-0.4,3.7,3.1,7,6.5,7.4c4,0.5,6.8-1.8,8.2-5.4
			c7.3-17.5,13.4-35.5,18.3-53.8c-4.8-1.3-9.6-2.7-14.5-4c-2.9,13.9-5.9,27.9-8.8,41.8c4.8,1.3,9.6,2.7,14.5,4
			c3.5-17.3,6.9-34.6,10.4-52c-4.9-0.7-9.8-1.3-14.7-2c-1.9,18.1-3.7,36.3-5.6,54.4c-0.9,8.5,12.6,10,14.7,2
			c5.6-21.1,9.7-42.4,12.5-64.1c0.9-7.2-11.1-10.5-14-3.8c-8.7,20.5-14.9,41.8-18.1,63.9c-1.4,9.4,11.2,13.3,14.5,4
			c6.2-17.5,11.1-35.3,14.8-53.5c1.9-9.4-12.1-13.4-14.5-4c-4.1,16.7-9.5,33-16,49c4.8,1.3,9.6,2.7,14.5,4
			c1.9-12.8,5.2-25.2,10.1-37.1c-4.9-0.7-9.8-1.3-14.7-2c0.3,10.6,0,21.2-1,31.8c4.9-0.7,9.8-1.3,14.7-2
			c-3.2-7.8-7.3-14.7-13.2-20.8c-5.7-6-17,2.1-11.8,9.1c8,10.7,19,16.5,31.3,21.3c11.2,4.4,23.4,7.7,32.6,15.9
			c1.1-4.2,2.2-8.4,3.3-12.5c-13.4,2.8-26.5,6.8-39.1,12c-6.1,2.5-8.1,12.8,0,14.5c15.7,3.3,31.3,3.5,47.1,0.9
			c8.2-1.4,6.4-15.8-2-14.7c-18.4,2.4-36.8,4.7-55.2,7.1c-9.2,1.2-18.4,2.6-27.6,3.5c-1.1,0.1-4.1-0.3-4.9,0.2
			c-0.7,0.4-0.7-0.4,0.1,1c-0.2,1.3,0,1.6,0.6,0.8c0.5-0.5,1.1-1,1.6-1.4c1.4-1.1,2.9-2.1,4.2-3.2c11-8.9,14.6-23.5,15.7-37
			c1.2-14.8-1.5-30.9,6-44.3c-4.7-1.3-9.3-2.5-14-3.8c-1.4,22.4-7.1,44.4-16.9,64.6c4.6,0.6,9.1,1.2,13.7,1.8
			c-0.6-3.4-1.2-6.9-1.8-10.3c-0.8-4.7-7.2-6.9-11-4.5c-7.1,4.5-12.9,10.5-16.8,18c-2.7,5.1,0.6,11.1,6.5,11.3
			c9.5,0.3,18.7,1.9,27.7,4.8c-1.1-4.2-2.2-8.4-3.3-12.5c-3.4,2.7-7.4,4.9-11.4,6.5c2.8,3.7,5.6,7.3,8.5,11c2.4-3.3,4.8-6.6,7.1-9.9
			c-4.6-1.9-9.1-3.9-13.7-5.8c-2.2,7.3-10.1,11.8-17.5,9.9c-8.5-2.2-12.6,8.9-5.8,13.7c1.5,1.1,3,2.1,4.6,3.2
			c4.8,3.3,11.3-1.1,11.3-6.5c-0.1-10.5-7.6-20.3-18.2-22c-4-0.6-8,1-9.2,5.2C728,398.3,730.2,403.4,734.2,404L734.2,404z"/>
	</g>
</g>
</svg>
